<svg width="38" height="38" viewBox="0 0 38 38" fill="none" xmlns="http://www.w3.org/2000/svg">
<path d="M16.05 24L10.95 18.9C10.75 18.6667 10.4833 18.55 10.15 18.55C9.81667 18.55 9.51667 18.6833 9.25 18.95C9.01667 19.1833 8.9 19.4667 8.9 19.8C8.9 20.1333 9.01667 20.4167 9.25 20.65L15.05 26.4C15.35 26.7 15.6917 26.85 16.075 26.85C16.4583 26.85 16.7833 26.7 17.05 26.4L28.7 14.8C28.9333 14.5667 29.0417 14.2833 29.025 13.95C29.0083 13.6167 28.8833 13.3333 28.65 13.1C28.4167 12.8667 28.1333 12.75 27.8 12.75C27.4667 12.75 27.1667 12.8667 26.9 13.1L16.05 24ZM19 38C16.3333 38 13.8417 37.5167 11.525 36.55C9.20833 35.5833 7.19167 34.2417 5.475 32.525C3.75833 30.8083 2.41667 28.7917 1.45 26.475C0.483333 24.1583 0 21.6667 0 19C0 16.3667 0.483333 13.8917 1.45 11.575C2.41667 9.25833 3.75833 7.24167 5.475 5.525C7.19167 3.80833 9.20833 2.45833 11.525 1.475C13.8417 0.491667 16.3333 0 19 0C21.6333 0 24.1083 0.491667 26.425 1.475C28.7417 2.45833 30.7583 3.80833 32.475 5.525C34.1917 7.24167 35.5417 9.25 36.525 11.55C37.5083 13.85 38 16.3333 38 19C38 21.6667 37.5083 24.1583 36.525 26.475C35.5417 28.7917 34.1917 30.8083 32.475 32.525C30.7583 34.2417 28.75 35.5833 26.45 36.55C24.15 37.5167 21.6667 38 19 38ZM19 35.75C23.7333 35.75 27.7083 34.1417 30.925 30.925C34.1417 27.7083 35.75 23.7333 35.75 19C35.75 14.2667 34.1417 10.2917 30.925 7.075C27.7083 3.85833 23.7333 2.25 19 2.25C14.2667 2.25 10.2917 3.85833 7.075 7.075C3.85833 10.2917 2.25 14.2667 2.25 19C2.25 23.7333 3.85833 27.7083 7.075 30.925C10.2917 34.1417 14.2667 35.75 19 35.75Z" fill="#676767"/>
</svg>
